<?xml version="1.0" encoding="utf-8"?>
<!-- Generator: Adobe Illustrator 26.0.2, SVG Export Plug-In . SVG Version: 6.00 Build 0)  -->
<svg version="1.1" id="Layer_1" xmlns="http://www.w3.org/2000/svg" xmlns:xlink="http://www.w3.org/1999/xlink" x="0px" y="0px"
	 viewBox="0 0 100 125" style="enable-background:new 0 0 100 125;" xml:space="preserve">
<style type="text/css">
	.st0{fill:#1D7CD3;}
</style>
<path class="st0" d="M50,17c-1.8,0-3.5,0.6-4.9,1.5c-2.3-0.9-4.4-1.1-6.2-0.5c-3.2,1.1-4.5,4-5.5,6.2c-0.4,0.8-0.9,1.9-1.1,2.1
	c-1.5,0.7-2.2,2.5-1.5,4c0.5,1.1,1.6,1.7,2.7,1.7c0.4,0,0.8-0.1,1.3-0.3c2.2-1,3.2-3.1,4-5c0.6-1.2,1.3-2.8,2-3c0.1,0,0.3,0,0.6,0
	C41.1,24.4,41,25.2,41,26c0,5,4,9,9,9s9-4,9-9S55,17,50,17z M50,29c-1.7,0-3-1.3-3-3s1.3-3,3-3s3,1.3,3,3S51.7,29,50,29z"/>
<path class="st0" d="M83,14v12c0,1.7-1.3,3-3,3H68c-1.7,0-3-1.3-3-3s1.3-3,3-3h5.7c-6.5-5.7-14.9-9-23.7-9c-19.9,0-36,16.1-36,36
	c0,4.8,0.9,9.4,2.8,13.8c0.6,1.5-0.1,3.3-1.6,3.9C14.8,67.9,14.4,68,14,68c-1.2,0-2.3-0.7-2.8-1.8C9.1,61,8,55.6,8,50
	C8,26.8,26.8,8,50,8c10,0,19.5,3.6,27,9.9V14c0-1.7,1.3-3,3-3S83,12.3,83,14z"/>
<path class="st0" d="M88.8,33.8c-0.6-1.5-2.4-2.2-3.9-1.6c-1.5,0.6-2.3,2.4-1.6,3.9C85.1,40.6,86,45.2,86,50
	c0,16.2-10.7,29.9-25.4,34.4L59.3,71h1.2c1,0,1.9-0.5,2.5-1.3c0.6-0.8,0.7-1.8,0.3-2.8L59,55.5V44h15c1.7,0,3-1.3,3-3s-1.3-3-3-3H26
	c-1.7,0-3,1.3-3,3s1.3,3,3,3h15v10.7L36.7,67c-0.3,0.9-0.2,1.9,0.4,2.7c0.6,0.8,1.5,1.3,2.4,1.3h1.2l-1.3,13.4
	c-4.8-1.5-9.3-4-13.1-7.4H32c1.7,0,3-1.3,3-3s-1.3-3-3-3H20c-1.7,0-3,1.3-3,3v12c0,1.7,1.3,3,3,3s3-1.3,3-3v-3.9
	c7.5,6.3,17,9.9,27,9.9c23.2,0,42-18.8,42-42C92,44.4,90.9,39,88.8,33.8z M53,44v12c0,0.4,0.1,0.7,0.2,1.1l3,7.9H43.7l3.1-8.8
	c0.1-0.3,0.2-0.7,0.2-1V44H53z M45.3,85.7L46.7,71h6.6l1.4,14.7C53.2,85.9,51.6,86,50,86C48.4,86,46.9,85.9,45.3,85.7z"/>
</svg>
