<?xml version="1.0" encoding="utf-8"?>
<!-- Generator: Adobe Illustrator 26.0.2, SVG Export Plug-In . SVG Version: 6.00 Build 0)  -->
<svg version="1.1"
	 id="Layer_1" xmlns:inkscape="http://www.inkscape.org/namespaces/inkscape" xmlns:sodipodi="http://sodipodi.sourceforge.net/DTD/sodipodi-0.dtd" xmlns:svg="http://www.w3.org/2000/svg"
	 xmlns="http://www.w3.org/2000/svg" xmlns:xlink="http://www.w3.org/1999/xlink" x="0px" y="0px" viewBox="0 0 26.5 33.1"
	 style="enable-background:new 0 0 26.5 33.1;" xml:space="preserve">
<style type="text/css">
	.st0{fill-rule:evenodd;clip-rule:evenodd;fill:#B2A31A;}
</style>
<g>
	<path class="st0" d="M13.3,1.3c-1,0-1.9,0.6-2.4,1.5c-0.3-0.3-0.8-0.5-1.2-0.5c-0.6,0-1.3,0.5-1,1.5c0.3,1,0,1-0.8,0.9
		c0.5,0.7,1.7,1.6,2.8-0.3c0.2,1.3,1.3,2.2,2.6,2.2C14.8,6.6,16,5.4,16,4C16,2.5,14.8,1.3,13.3,1.3z M13.1,7.2c-0.5,0-1,0.2-1.4,0.5
		c-0.4,0.3-0.8,0.7-1,1.2c-0.3,0.7-0.4,1.6-0.3,2.4c0.1,0.8,0.2,1.6,0.3,2.4c0.1,1.6-0.5,3.3-1.5,4.6h5.5c0.8,0,1.6,0,2.3-0.4
		c0.7-0.3,1.3-0.9,1.5-1.7c0.2-0.7,0.1-1.6-0.2-2.2c-0.3-0.7-0.9-1.3-1.4-1.8c-0.3-0.3-0.6-0.6-0.7-1c-0.2-0.4-0.2-0.8-0.3-1.2
		c0-0.4-0.1-0.8-0.2-1.2c-0.2-0.5-0.5-0.9-0.9-1.2C14.2,7.4,13.7,7.2,13.1,7.2z M13.2,8.7c0.1,0,0.2,0,0.2,0c0.5,0.1,0.8,0.5,0.7,1
		c0,0,0,0,0,0c-0.2,1.2-0.3,2.3-0.1,2.8c0.1,0.3,0.2,0.4,0.5,0.5c0.3,0.1,0.8,0.2,1.6,0.1c0.5-0.1,0.9,0.3,1,0.7
		c0.1,0.5-0.3,0.9-0.7,1c0,0,0,0,0,0c-1,0.1-1.8,0.1-2.5-0.2c-0.7-0.3-1.2-0.9-1.4-1.5c-0.5-1.2-0.2-2.5,0-3.8
		C12.5,9,12.8,8.7,13.2,8.7z M12.2,18.8V24c0,0.6,0.5,1.2,1.2,1.2c0,0,0,0,0,0c0.6,0,1.2-0.5,1.2-1.2c0,0,0,0,0,0v-5.2H12.2z"/>
</g>
</svg>
