<?xml version="1.0" encoding="utf-8"?>
<!-- Generator: Adobe Illustrator 26.0.2, SVG Export Plug-In . SVG Version: 6.00 Build 0)  -->
<svg version="1.1" xmlns="http://www.w3.org/2000/svg" xmlns:xlink="http://www.w3.org/1999/xlink" x="0px" y="0px"
	 viewBox="0 0 100 125" style="enable-background:new 0 0 100 125;" xml:space="preserve">
<style type="text/css">
	.st0{fill:#409BB8;}
</style>
<g id="Layer_2">
</g>
<g id="Layer_1">
	<g>
		<path class="st0" d="M97.5,60.4H55.8v-5.2c0-4-3.3-7.3-7.3-7.3h-2.9c-1.4,0-2.6,1.2-2.6,2.6c0,1.4,1.2,2.6,2.6,2.6h2.9
			c1.2,0,2.1,1,2.1,2.1v5.4c0,6.7,0.6,13,5.7,17.1c-1.2,1.5-1.9,3.3-1.9,5.4c0,4.7,3.8,8.4,8.4,8.4c4.7,0,8.4-3.8,8.4-8.4
			c0-0.3,0-0.7-0.1-1c0.9,0,1.9,0.1,2.8,0.1c1,0,2,0,3-0.1c0,0.3-0.1,0.7-0.1,1c0,4.7,3.8,8.4,8.4,8.4c4.7,0,8.4-3.8,8.4-8.4
			c0-2.1-0.8-4-2-5.4C96.9,73.5,97.5,67.2,97.5,60.4z M62.8,86.5c-1.9,0-3.4-1.5-3.4-3.4s1.5-3.4,3.4-3.4c1.9,0,3.4,1.5,3.4,3.4
			C66.3,84.9,64.7,86.5,62.8,86.5z M85.4,86.5c-1.9,0-3.4-1.5-3.4-3.4s1.5-3.4,3.4-3.4s3.4,1.5,3.4,3.4
			C88.9,84.9,87.3,86.5,85.4,86.5z"/>
		<path class="st0" d="M82.2,36.1c-1.1-0.3-2.3,0.3-2.5,1.5l-3.5,19h21.3C97.5,46.9,91.1,38.8,82.2,36.1z"/>
		<path class="st0" d="M35.3,40.3c1.4,1.5,3.2,3.6,7.1,4.2c3.7,0.6,7.4,0.1,7.5,0.1c2.1-0.3,3.6-2.2,3.4-4.3
			c-0.3-2.1-2.2-3.6-4.3-3.4c0,0-2.8,0.3-5.4-0.1c-1-0.2-1.3-0.5-2.5-1.7c-2.4-2.6-5.1-5-11.5-5.7c-0.4,0.5-0.9,1-1.4,1.4
			c-1.6,1.4-4,1.4-5.6,0c-0.5-0.4-1-1-1.4-1.5c-1.6,0.1-3.1,0.4-4.5,1.1c-2,1-11.2,6.4-12.2,7c-1,0.6-1.7,1.5-1.9,2.6s0,2.2,0.7,3.1
			l6.3,8.4c0.8,1,1.9,1.6,3.1,1.6c0.6,0,1.2-0.2,1.8-0.5C13.4,55.7,12,59.2,10,63c-0.8,1.7,0.8,3,3.7,4L9.2,86.5
			c-0.5,2.3,0.9,4.5,3.2,5.1c0.3,0.1,0.6,0.1,1,0.1c1.9,0,3.7-1.3,4.1-3.3L22,68.6c1.5,0.1,3,0.2,4.5,0.2l0.2,18.7
			c0,2.3,1.9,4.2,4.2,4.2l0,0c2.3,0,4.2-1.9,4.2-4.3l-0.2-19.6c4.1-1.1,6.6-3.2,4.8-6.6c-5.1-9.6-6.3-17.9-6.5-22.8
			C34.1,38.9,34.7,39.6,35.3,40.3z M16.1,47.4c-0.1-0.2-0.2-0.3-0.3-0.5l-3.7-5c1.9-1.1,3.9-2.3,5.5-3.2C17.4,41,17,43.9,16.1,47.4z
			"/>
		<path class="st0" d="M16.7,17c-0.1,0.5-0.2,1-0.2,1.5c0,4.9,4,8.9,8.9,8.9s8.9-4,8.9-8.9s-4-8.9-8.9-8.9c-1,0-1.9,0.2-2.8,0.5
			C21.8,9,20.5,8.3,19,8.3c-2.6,0-4.7,2.1-4.7,4.7C14.4,14.7,15.3,16.2,16.7,17z"/>
	</g>
</g>
</svg>
