<?xml version="1.0" encoding="utf-8"?>
<!-- Generator: Adobe Illustrator 26.0.2, SVG Export Plug-In . SVG Version: 6.00 Build 0)  -->
<svg version="1.1" id="Layer_1" xmlns="http://www.w3.org/2000/svg" xmlns:xlink="http://www.w3.org/1999/xlink" x="0px" y="0px"
	 viewBox="0 0 110 135" style="enable-background:new 0 0 110 135;" xml:space="preserve">
<style type="text/css">
	.st0{fill:#8549AA;}
</style>
<path class="st0" d="M24.4,48.2c0-0.7,0.6-1.3,1.3-1.3h26.6c0.7,0,1.3,0.6,1.3,1.3c0,0.7-0.6,1.3-1.3,1.3H25.7
	C24.9,49.6,24.4,49,24.4,48.2z M56.3,49.6h4.7c0.7,0,1.3-0.6,1.3-1.3c0-0.7-0.6-1.3-1.3-1.3h-4.7c-0.7,0-1.3,0.6-1.3,1.3
	C54.9,49,55.5,49.6,56.3,49.6z M25.7,44.2h21.9c0.4,0,0.7-0.1,1-0.4c0.3-0.2,0.4-0.6,0.4-1c0-0.4-0.1-0.7-0.4-1
	c-0.3-0.3-0.6-0.4-1-0.4H25.7c-0.4,0-0.7,0.1-1,0.4c-0.3,0.2-0.4,0.6-0.4,1c0,0.4,0.1,0.7,0.4,1C25,44.1,25.3,44.2,25.7,44.2z
	 M49.5,22.4h2.5h0c0.2,0,0.4,0.2,0.4,0.4V24c0,0.4,0.1,0.7,0.4,1c0.2,0.3,0.6,0.4,1,0.4s0.7-0.1,1-0.4c0.2-0.3,0.4-0.6,0.4-1v-1.2
	c0-1.7-1.4-3.1-3.1-3.1h-2.5c-0.4,0-0.7,0.1-1,0.4s-0.4,0.6-0.4,1s0.1,0.7,0.4,1C48.8,22.2,49.2,22.4,49.5,22.4L49.5,22.4z
	 M42.1,22.4h3.3c0.7,0,1.3-0.6,1.3-1.3c0-0.7-0.6-1.3-1.3-1.3h-3.3c-0.4,0-0.7,0.1-1,0.4s-0.4,0.6-0.4,1c0,0.4,0.1,0.7,0.4,1
	C41.4,22.2,41.8,22.4,42.1,22.4L42.1,22.4z M36.4,22.4h1.6h0c0.4,0,0.7-0.1,1-0.4c0.3-0.2,0.4-0.6,0.4-1c0-0.4-0.1-0.7-0.4-1
	s-0.6-0.4-1-0.4h-1.6c-0.7,0-1.3,0.6-1.3,1.3C35.1,21.7,35.7,22.3,36.4,22.4L36.4,22.4z M39.9,54.5L39.9,54.5c0,0.4,0.1,0.7,0.4,0.9
	s0.6,0.4,0.9,0.4h15.6c0.7,0,1.3-0.6,1.3-1.3c0-0.7-0.6-1.3-1.3-1.3H41.2C40.5,53.2,39.9,53.7,39.9,54.5L39.9,54.5z M37,55.8h0.8
	c0.7,0,1.3-0.6,1.3-1.3c0-0.7-0.6-1.3-1.3-1.3H37c-0.7,0-1.3,0.6-1.3,1.3C35.7,55.2,36.2,55.8,37,55.8z M54.2,57.1H37
	c-0.7,0-1.3,0.6-1.3,1.3s0.6,1.3,1.3,1.3h17.2c0.7,0,1.3-0.6,1.3-1.3S54.9,57.1,54.2,57.1z M27.3,59.6L27.3,59.6
	c0.2,0.2,0.6,0.4,0.9,0.4c0.4,0,0.7-0.1,0.9-0.4l4.4-4.4c0.5-0.5,0.5-1.4,0-1.9c-0.5-0.5-1.3-0.5-1.9,0l-3.5,3.5l-1.6-1.6v0
	c-0.5-0.5-1.4-0.5-1.9,0c-0.5,0.5-0.5,1.4,0,1.9L27.3,59.6z M37,77.5h0.8v0c0.7,0,1.3-0.6,1.3-1.3s-0.6-1.3-1.3-1.3H37
	c-0.7,0-1.3,0.6-1.3,1.3S36.2,77.4,37,77.5L37,77.5z M37.8,64H37v0c-0.7,0-1.3,0.6-1.3,1.3c0,0.7,0.6,1.3,1.3,1.3h0.8
	c0.7,0,1.3-0.6,1.3-1.3C39.1,64.6,38.5,64,37.8,64L37.8,64z M27.3,70.4c0.2,0.2,0.6,0.4,0.9,0.4c0.4,0,0.7-0.1,0.9-0.4l4.4-4.4
	c0.5-0.5,0.5-1.4,0-1.9c-0.5-0.5-1.3-0.5-1.9,0l-3.5,3.5L26.6,66c-0.5-0.5-1.4-0.5-1.9,0c-0.5,0.5-0.5,1.3,0,1.9L27.3,70.4z
	 M31.7,74.9l-3.5,3.5l-1.6-1.6v0c-0.5-0.5-1.4-0.5-1.9,0c-0.5,0.5-0.5,1.4,0,1.9l2.5,2.5l0,0c0.2,0.2,0.6,0.4,0.9,0.4
	c0.4,0,0.7-0.1,0.9-0.4l4.4-4.4c0.5-0.5,0.5-1.4,0-1.9C33.1,74.4,32.2,74.4,31.7,74.9L31.7,74.9z M73.2,77.2L73.2,77.2
	c0,0,0.1,0,0.1,0c0.7,0,1.3-0.6,1.3-1.3c0-0.7-0.5-1.3-1.2-1.4l-0.1,0c-0.7-0.1-1.4,0.5-1.5,1.2C71.9,76.5,72.4,77.1,73.2,77.2
	L73.2,77.2z M77,72.5L77,72.5L77,72.5c-0.8-0.1-1.5,0.4-1.5,1.2c-0.1,0.7,0.5,1.4,1.2,1.5l0.1,0c0,0,0.1,0,0.1,0v0
	c0.7,0,1.3-0.6,1.3-1.3C78.2,73.2,77.7,72.6,77,72.5L77,72.5z M73.9,78.3L73.9,78.3L73.9,78.3c-0.8-0.1-1.5,0.4-1.5,1.2
	c-0.1,0.7,0.5,1.4,1.2,1.5l0.1,0c0,0,0.1,0,0.1,0c0.7,0,1.3-0.6,1.3-1.3C75.2,79,74.6,78.4,73.9,78.3L73.9,78.3z M76.5,75.4
	L76.5,75.4L76.5,75.4c-0.8-0.1-1.5,0.4-1.5,1.2c-0.1,0.7,0.5,1.4,1.2,1.5l0.1,0c0,0,0.1,0,0.1,0c0.7,0,1.3-0.6,1.3-1.3
	S77.2,75.5,76.5,75.4L76.5,75.4z M97.2,74.8L97.2,74.8c1.2,2.2,1.3,4.9,0.4,7.2c0.5,0.2,0.8,0.7,0.8,1.2v6c0,6.3-3.6,11.4-10.2,14.5
	v2.2h0c0,1.7-1.4,3.1-3.1,3.1H62.8c-1.7,0-3.1-1.4-3.1-3.1v-2.2c-2.1-1-4.1-2.3-5.7-3.9H14.6c-2.5,0-4.5-2-4.5-4.5V25.4
	c0-2.5,2-4.5,4.5-4.5h11.3V19c0-1.6,1.3-2.9,2.9-2.9h4.1v-2.2c0-1.5,1.3-2.8,2.8-2.8h13.3c1.5,0,2.8,1.3,2.8,2.8v2.2h4.1h0
	c1.6,0,2.9,1.3,2.9,2.9v1.9h11.3c2.5,0,4.5,2,4.5,4.5v39.9c0.2,0.4,0.4,0.9,0.5,1.4c0.8,0.1,1.6,0.3,2.3,0.7l0.2-2.4v0
	c0.1-0.7,0.7-1.2,1.5-1.2c0.7,0.1,1.2,0.7,1.2,1.4L80,67.1c1.3-0.7,2.6-1.2,4-1.5c0.4-0.1,0.8,0,1.1,0.2c0.3,0.2,0.5,0.6,0.6,0.9
	c0.2,1.9-0.7,3.8-2.3,4.8c-0.1,0.1-0.2,0.1-0.2,0.1c0.3,0.2,0.6,0.4,0.8,0.7c1-0.9,2.2-1.5,3.5-1.8c-0.3-1.5-0.5-3.7,0.5-5v0
	c0.9-1.3,2.7-1.6,4-0.8c1.2-1,2.9-1.1,4.3-0.4c1.4,0.8,2.2,2.3,2,3.8c0.8,0.5,1.3,1.2,1.5,2.1C100.2,71.7,99.3,73.3,97.2,74.8
	L97.2,74.8z M91.9,73.4c-2-0.8-4.2-0.5-5.9,0.8c0.9,0.3,1.7,0.6,2.6,1h0c0.7,0.3,1,1.1,0.7,1.7c-0.3,0.7-1.1,1-1.7,0.7
	c-1.1-0.4-2.2-0.9-3.3-1.2c0,0.1-0.1,0.1-0.1,0.2c-0.5,1.3-0.8,2.7-0.9,4c1,0.3,2,0.7,2.9,1.1v0c0.1,0,0.2,0.1,0.3,0.2h4.1
	c0,0,0-0.1,0-0.1c0.1-0.3,0.3-0.7,0.6-0.9c0.3-0.2,0.7-0.3,1-0.2c0.9,0.2,1.9,0.4,2.8,0.6c0-0.1,0.1-0.2,0.1-0.3
	C96.3,78.1,94.9,74.6,91.9,73.4L91.9,73.4z M63.7,81.9c-0.3-0.3-0.8-0.5-1.2-0.6c-3.9-0.8-3.8-3.3-3.8-4.9c0-0.5,0-0.9-0.1-1.4
	c0-0.1-0.1-0.5-0.7-0.9v0c-1.7-0.8-3.5-1-5.3-0.8c-0.6,0.7-1.9,3.4-1.8,5.2c0,0.4,0.1,0.7,0.4,1c0.4,0.3,0.8,0.5,1.2,0.7
	c0.9,0.4,1.7,1,2.3,1.7h1.5l-2.7-4.6h0c-0.2-0.3-0.2-0.7-0.2-1c0.1-0.4,0.3-0.7,0.6-0.8c0.3-0.2,0.7-0.2,1-0.1
	c0.3,0.1,0.6,0.3,0.8,0.6l3.5,5.9L63.7,81.9z M18.5,28.6V92h31.3c-0.2-0.9-0.3-1.9-0.3-2.8v-6c0-0.5,0.3-0.9,0.7-1.2
	c-0.3-0.2-0.6-0.4-0.8-0.6c0,0-0.1,0-0.1-0.1H37c-0.7,0-1.3-0.6-1.3-1.3s0.6-1.3,1.3-1.3h11.1c0-0.3,0-0.6,0-1c0-0.1,0-0.2,0-0.3
	h-6.9c-0.7,0-1.3-0.6-1.3-1.3c0-0.7,0.6-1.3,1.3-1.3h7.6c0.3-0.9,0.7-1.7,1.2-2.5c0.2-0.6,0.4-1.2,0.8-1.7H37
	c-0.7,0-1.3-0.6-1.3-1.3s0.6-1.3,1.3-1.3h14.3c0-0.4,0.1-0.9,0.3-1.3H41.2c-0.7,0-1.3-0.6-1.3-1.3s0.6-1.3,1.3-1.3h12.4
	c0.9-0.6,1.9-0.9,2.9-1c0.5-1.4,1.5-2.5,2.7-3.2h-1.6c-0.4,0-0.7-0.1-1-0.4c-0.3-0.3-0.4-0.6-0.4-1c0-0.4,0.1-0.7,0.4-1
	s0.6-0.4,1-0.4h3.3c0.4,0,0.9,0.2,1.1,0.6c0.2,0.4,0.3,0.8,0.1,1.3c0,0,0.1,0,0.1,0c1.4,0,2.7,0.5,3.8,1.3V40.3H55.8
	c-0.7,0-1.3-0.6-1.3-1.3v-6.3c-0.5,0.6-1.2,0.9-2,0.9H32.2c-1.5,0-2.7-1.2-2.7-2.7v-2h-0.7c-0.4,0-0.9-0.1-1.3-0.3L18.5,28.6z
	 M66.1,28.6H59l7.1,7.1L66.1,28.6z M57.1,37.7h7.1l-7.1-7.1V37.7z M32.1,30.9C32.1,30.9,32.2,30.9,32.1,30.9l20.3,0c0,0,0,0,0,0v-2
	H32.1L32.1,30.9z M61.3,77.1L61.3,77.1c0.2-0.5,0.2-1,0-1.5c0-0.1,0-0.2,0-0.3c0,0.4,0,0.8,0,1.2C61.3,76.7,61.3,76.9,61.3,77.1
	L61.3,77.1z M68.2,81.9c-0.4-1.1-0.5-2.3-0.4-3.5c0.2-2.2,1.2-4.2,2.7-5.7c-0.2-0.3-0.5-0.7-0.7-1c-1.9,0-3.7,0.4-5.3,1.3
	c-0.5,0.4-0.6,0.7-0.6,0.8v0c0,0.5,0,0.9,0.1,1.4c0.3,1.2,0.1,2.4-0.6,3.5c1,0.2,1.9,0.8,2.5,1.7c0.3,0.4,0.5,0.9,0.5,1.4L68.2,81.9
	z M80.4,81.9c0-0.2,0-0.3,0-0.5h0c0,0,0-0.1,0-0.1c0-0.3,0.1-0.5,0.1-0.8v0c-0.5-0.3-0.8-0.8-0.7-1.4s0.5-1,1.1-1.1
	c0.2-0.9,0.4-1.7,0.8-2.6c0.2-0.4,0.4-0.8,0.6-1.1c-0.2-0.2-0.4-0.4-0.6-0.5c0.2,0.4,0.1,0.9-0.1,1.2c-0.2,0.4-0.7,0.6-1.1,0.6
	c0,0-0.1,0-0.1,0l-0.1,0C79.5,75.6,79,75,79,74.3c0-0.7,0.5-1.3,1.2-1.3c-2-0.9-4.4-0.8-6.3,0.4c-1.9,1.1-3.2,3.1-3.4,5.3
	c-0.1,1.1,0.1,2.2,0.6,3.2L80.4,81.9z M80.7,69.8c0.4-0.1,0.8-0.2,1.2-0.5c0.2-0.1,0.3-0.3,0.5-0.4C81.8,69.1,81.2,69.4,80.7,69.8z
	 M74.5,69.4c-0.2,0-0.3,0-0.5,0c-0.4,0.1-0.8,0-1.1-0.3c-0.3-0.3-0.5-0.7-0.4-1.1c0-0.1,0-0.2,0-0.3h0c0-1.5-1.2-2.8-2.8-2.8
	c-0.6,0-1.2,0.2-1.7,0.6c-0.4,0.3-0.9,0.4-1.3,0.2c-0.4-0.2-0.8-0.6-0.8-1.1c-0.2-1.7-1.7-3-3.5-3c-1.7,0-3.2,1.3-3.5,3
	c-0.1,0.4-0.3,0.7-0.6,0.9c-0.3,0.2-0.7,0.3-1,0.2c-0.8-0.2-1.7,0.1-2.3,0.6c-0.6,0.5-1,1.3-1,2.2c0,0.4,0.1,0.8,0.3,1.2
	c0.1,0.3,0.2,0.6,0.1,0.9c1.5,0.1,2.9,0.4,4.3,0.9c1.3,0.5,2.3,1.6,2.6,3c0,0.1,0,0.2,0.1,0.4c0-0.4,0-0.8,0-1.2
	c0.2-1.4,1.1-2.6,2.3-3.2c0.9-0.5,1.9-0.8,3-1.1c-0.2,0-0.3,0-0.5,0c-1.3,0-2.6-0.5-3.5-1.4c-0.3-0.2-0.4-0.6-0.4-0.9
	c0-0.4,0.1-0.7,0.4-0.9c0.5-0.5,1.4-0.5,1.9,0c0.7,0.7,1.9,0.9,2.8,0.3c0.6-0.4,1.4-0.2,1.8,0.5c0.4,0.6,0.2,1.4-0.5,1.8
	c-0.4,0.2-0.8,0.4-1.2,0.5c1.2-0.3,2.4-0.3,3.6,0c0.7,0.5,1.3,1.1,1.7,1.8c1-0.6,2.2-1,3.4-1.2C75.6,69.5,75.1,69.4,74.5,69.4
	L74.5,69.4z M58.7,23.6V26h8.7c0.4,0,0.7,0.1,0.9,0.4s0.4,0.6,0.4,0.9v35c1.1-0.2,2.1,0,3.1,0.4V25.4c0-1-0.8-1.8-1.8-1.8L58.7,23.6
	z M35.5,16.1h13.5v-2.2c0-0.1-0.1-0.1-0.1-0.1H35.7c-0.1,0-0.1,0.1-0.1,0.1L35.5,16.1z M28.6,26L28.6,26c0,0.1,0.1,0.2,0.2,0.2h27
	c0.1,0,0.2-0.1,0.2-0.2V19c0-0.1-0.1-0.2-0.2-0.2h-27c-0.1,0-0.2,0.1-0.2,0.2L28.6,26z M51.8,97.1L51.8,97.1
	c-0.5-0.8-0.9-1.6-1.2-2.4H17.2c-0.4,0-0.7-0.1-0.9-0.4s-0.4-0.6-0.4-0.9v-66c0-0.4,0.1-0.7,0.4-0.9s0.6-0.4,0.9-0.4h8.7v-2.4H14.5
	c-1,0-1.8,0.8-1.8,1.8v69.9c0,1,0.8,1.8,1.8,1.8L51.8,97.1z M85.5,105.8v-1.7l-23.1,0v1.7c0,0.2,0.2,0.4,0.4,0.4h22.2
	C85.3,106.3,85.5,106.1,85.5,105.8L85.5,105.8z M95.7,84.5H52.2v4.6c0,7.1,5.7,10.7,9.2,12.3h25c3.6-1.6,9.2-5.2,9.2-12.3V84.5z
	 M97.3,70.8c-0.1-0.3-0.3-0.5-0.6-0.5c-0.5,0-0.9-0.3-1.1-0.7c-0.2-0.4-0.2-0.9,0-1.3c0.2-0.3,0.2-0.7,0.1-1s-0.3-0.6-0.7-0.7
	c-0.3-0.1-0.7-0.2-1,0c-0.3,0.1-0.6,0.4-0.7,0.7c-0.2,0.5-0.7,0.8-1.3,0.8c-0.6,0-1-0.4-1.2-0.9c0-0.1-0.2-0.2-0.3-0.3
	c-0.1,0-0.3,0-0.4,0.2c-0.3,1-0.3,2.2,0,3.2c2,0.1,4,1,5.4,2.4C97,71.6,97.3,70.9,97.3,70.8L97.3,70.8z M59.7,67
	c-1.1-0.4-2.3-0.2-3.3,0.4c-0.6,0.4-0.8,1.2-0.4,1.8c0.4,0.6,1.2,0.8,1.8,0.4c0.3-0.2,0.7-0.2,1.1-0.1c0.4,0.1,0.6,0.4,0.8,0.7
	c0.3,0.7,1,1,1.7,0.8c0.7-0.2,1-1,0.8-1.7C61.7,68.3,60.8,67.4,59.7,67L59.7,67z"/>
</svg>
