<?xml version="1.0" encoding="utf-8"?>
<!-- Generator: Adobe Illustrator 26.0.2, SVG Export Plug-In . SVG Version: 6.00 Build 0)  -->
<svg version="1.1" id="Layer_1" xmlns="http://www.w3.org/2000/svg" xmlns:xlink="http://www.w3.org/1999/xlink" x="0px" y="0px"
	 viewBox="0 0 110 135" style="enable-background:new 0 0 110 135;" xml:space="preserve">
<path d="M23.5,35.2h39c1.9,0,1.9,2.9,0,2.9h-39C21.5,38.2,21.5,35.2,23.5,35.2z M23.5,50.3h39c1.9,0,1.9-2.9,0-2.9h-39
	C21.5,47.3,21.5,50.3,23.5,50.3z M43,59.4H23.5c-1.9,0-1.9,2.9,0,2.9H43C44.9,62.4,44.9,59.4,43,59.4L43,59.4z M105,51.6v16.2
	c0,10.7-8.3,19.3-18.7,20.1v6.7c0,4.5-5.3,7-8.7,4.1L64.5,88H49.2c-4.5,0-8.8-1.5-12.4-4.3l-4.4,3.6c-3.5,2.9-8.7,0.4-8.7-4.1v-6.7
	C13.3,75.7,5,67,5,56.4V40.2C5,29.1,14,20,25.1,20h35.7c8,0,14.9,4.7,18.1,11.4h5.9C96,31.4,105,40.5,105,51.6L105,51.6z M44,73.9
	c0.3-0.2,0.6-0.3,0.9-0.3h15.8c9.5,0,17.2-7.7,17.2-17.2V40.2C78,30.7,70.3,23,60.8,23H25.1c-9.5,0-17.2,7.7-17.2,17.2v16.2
	c0,9.5,7.7,17.2,17.2,17.2c0.8,0,1.5,0.7,1.5,1.5v8.1c0,2,2.4,3.2,3.9,1.9L44,73.9z M102.1,51.6c0-9.5-7.7-17.2-17.2-17.2h-4.8
	c0.6,1.8,0.9,3.8,0.9,5.8v16.2c0,11.1-9,20.1-20.1,20.1H45.5l-6.4,5.2c2.9,2.1,6.4,3.2,10.1,3.2H65c0.3,0,0.7,0.1,0.9,0.3l13.5,11.1
	c1.6,1.3,3.9,0.2,3.9-1.9v-8.1c0-0.8,0.7-1.5,1.5-1.5c9.5,0,17.2-7.7,17.2-17.2L102.1,51.6z"/>
</svg>
