<?xml version="1.0" encoding="utf-8"?>
<!-- Generator: Adobe Illustrator 26.0.2, SVG Export Plug-In . SVG Version: 6.00 Build 0)  -->
<svg version="1.1" id="Layer_1" xmlns="http://www.w3.org/2000/svg" xmlns:xlink="http://www.w3.org/1999/xlink" x="0px" y="0px"
	 viewBox="0 0 24 30" style="enable-background:new 0 0 24 30;" xml:space="preserve">
<g>
	<path d="M22,12.5c0-0.8-0.7-1.5-1.5-1.5c0,0,0,0,0,0H20v-1c0-1.7-1.3-3-3-3h-4V5.7c1-0.6,1.3-1.8,0.7-2.7C13.2,2,12,1.7,11,2.3
		S9.7,4,10.3,5c0.2,0.3,0.4,0.6,0.7,0.7V7H7c-1.7,0-3,1.3-3,3v1H3.5C2.7,11,2,11.7,2,12.5S2.7,14,3.5,14H4v1c0,1.3,0.9,2.5,2.2,2.9
		C6.7,18,7,18.4,7,18.9v0.7c0,0.6,0.4,1,1,1c0,0,0,0,0,0c0.3,0,0.5-0.1,0.7-0.3l2-2c0.2-0.2,0.4-0.3,0.7-0.3H17c1.7,0,3-1.3,3-3v-1
		h0.5C21.3,14,22,13.3,22,12.5C22,12.5,22,12.5,22,12.5z M19,15c0,1.1-0.9,2-2,2h-5.6c-0.5,0-1,0.2-1.4,0.6l-2,2v-0.7
		c0-0.9-0.6-1.7-1.5-1.9C5.6,16.7,5,15.9,5,15v-5c0-1.1,0.9-2,2-2h10c1.1,0,2,0.9,2,2V15z M10,12.5c0,0.8-0.7,1.5-1.5,1.5
		S7,13.3,7,12.5S7.7,11,8.5,11S10,11.7,10,12.5z M17,12.5c0,0.8-0.7,1.5-1.5,1.5c-0.8,0-1.5-0.7-1.5-1.5s0.7-1.5,1.5-1.5
		C16.3,11,17,11.7,17,12.5z"/>
</g>
</svg>
