<?xml version="1.0" encoding="utf-8"?>
<!-- Generator: Adobe Illustrator 26.0.2, SVG Export Plug-In . SVG Version: 6.00 Build 0)  -->
<svg version="1.1" id="Layer_1" xmlns="http://www.w3.org/2000/svg" xmlns:xlink="http://www.w3.org/1999/xlink" x="0px" y="0px"
	 viewBox="0 0 100 125" style="enable-background:new 0 0 100 125;" xml:space="preserve">
<path d="M83.8,68.9c-0.5,0.8-1.1,1.6-1.7,2.4c-0.5-0.3-1.1-0.6-1.7-0.8L80,70.7l-1.3,0.6l4.7,5.1c2.8-3.2,5.2-6.8,7-10.6l-5.3,2.5
	L83.8,68.9z"/>
<path d="M50,91.6c2.3,0,4.7-0.2,7-0.6l-0.7-5.5l0-0.5c-1.2,0.9-2.6,1.6-4.1,2V68.6c0.7,0,1.3,0.1,2,0.1l-0.6-4.3
	c-0.5,0-1-0.1-1.4-0.1v-11l-0.4-3.1l0.4,0.2v-1.2H69c-0.1,2.6-0.3,5.2-0.6,7.6l4.1,1.6c0.4-3.1,0.7-6.1,0.7-9.2h16.9
	c-0.3,5.1-1.5,10.1-3.6,14.7l4,1.6C100.7,43,90.8,16.6,68.4,6.4S19.6,6.2,9.4,28.6S9.2,77.4,31.6,87.6C37.4,90.2,43.7,91.5,50,91.6z
	 M82.1,22.7c4.9,6.4,7.7,14.1,8.2,22.2H73.3c-0.1-6-0.9-12-2.4-17.8C74.8,26,78.5,24.6,82.1,22.7z M79.2,19.4
	c-3,1.5-6.2,2.7-9.5,3.6c-0.8-2.4-1.7-4.7-2.8-6.9c-1.3-2.7-3-5.3-5-7.5C68.5,10.6,74.5,14.3,79.2,19.4z M52.1,7
	c5.5,1.4,10.3,7.8,13.4,17c-4.4,0.9-8.9,1.4-13.4,1.5L52.1,7z M52.1,29.7C57,29.6,61.9,29,66.7,28c1.4,5.5,2.1,11.2,2.3,16.9H52.1
	V29.7z M20.8,74.7c3-1.5,6.2-2.7,9.5-3.6c0.8,2.4,1.7,4.7,2.8,6.9c1.3,2.7,3,5.3,5,7.5C31.5,83.5,25.5,79.7,20.8,74.7L20.8,74.7z
	 M47.9,87c-5.5-1.3-10.3-7.8-13.4-16.9c4.4-0.9,8.9-1.4,13.4-1.5V87z M47.9,64.3C43,64.4,38.1,65,33.3,66
	c-1.4-5.5-2.1-11.2-2.3-16.8h16.9V64.3z M47.9,44.9H31c0.1-5.7,0.9-11.3,2.3-16.8c4.8,1,9.7,1.5,14.6,1.7V44.9z M47.9,7v18.4
	c-4.5-0.1-9-0.6-13.4-1.4C37.6,14.8,42.4,8.4,47.9,7z M38.1,8.6c-2,2.3-3.7,4.8-5,7.5c-1.1,2.2-2,4.5-2.8,6.9
	c-3.3-0.9-6.5-2.1-9.5-3.6C25.5,14.4,31.5,10.6,38.1,8.6z M17.9,22.7c3.5,1.9,7.3,3.3,11.2,4.4c-1.5,5.8-2.3,11.8-2.4,17.8H9.8
	C10.2,36.8,13,29.1,17.9,22.7z M9.8,49.2h16.9c0.1,6,0.9,12,2.4,17.8c-3.9,1-7.6,2.5-11.1,4.3C13.1,64.9,10.2,57.2,9.8,49.2z"/>
<path d="M59.1,85.2L59.1,85.2l6.9-8.4l0,0L59.1,85.2z"/>
<path d="M62.7,85.2l-1.4,1.7l-3.1,3.9c3.9-0.7,7.7-2,11.3-3.7l-2.4-3.6C65.6,84.1,64.2,84.7,62.7,85.2z"/>
<path d="M72.1,61.2L72.1,61.2l-4.1-1.6l0,0L72.1,61.2z"/>
<path d="M78.9,68.1l5-2.3L76.6,63l-4.5-1.7l-4.1-1.6l-12.9-5l2,15.3c0.7,5.1,1.3,10.1,2,15.3l6.9-8.5l0,0l6.9,10.4l6.8,10.4
	l11.2-8.8L74,70.4L78.9,68.1z"/>
</svg>
